<svg id="Calque_1" data-name="Calque 1" xmlns="http://www.w3.org/2000/svg" viewBox="0 0 5724.82 1238.16"><defs><style>.cls-1{fill:#1d1d1b;}.cls-2{fill:#ba1e1e;}</style></defs><title>THE RUNNER-LOGOS-01</title><path class="cls-1" d="M868.59,1209,671.68,992.84H380.6V873H704.86q73.83,0,111.29-40.13t37.46-116.11q0-76-39.07-112.9T704.86,566.93H281.08V1209H146.25V431H704.86q66.33,0,118.78,19.8t88.82,56.72q36.36,36.91,55.65,89.36t19.26,117.72q0,97.38-42.27,163.19T826.85,972.51L1061.21,1209Z" transform="translate(-146.25 -176.32)"/><path class="cls-1" d="M1839.21,431h132.68V862.27q0,89.91-23.54,156.78t-73.83,110.76q-50.31,43.89-130,65.28t-193.16,21.4q-112.35,0-192.08-21.4t-130-65.28q-50.31-43.86-73.83-110.76t-23.55-156.78V431H1272V862.27q0,58.88,14.45,100.59t47.08,68.49q32.63,26.78,87.22,39.07t134.83,12.31q80.27,0,134.84-12.31t87.22-39.07q32.64-26.73,47.08-68.49t14.46-100.59Z" transform="translate(-146.25 -176.32)"/><path class="cls-1" d="M2224.2,725.9V1209h0a129.49,129.49,0,0,1-129.49-129.49V512.34q0-37.44,18.72-59.39T2164.27,431a68.21,68.21,0,0,1,28.9,6.43q13.89,6.42,28.88,21.39l549,654.33V305.81a129.49,129.49,0,0,1,129.49-129.49h0V1333.14q0,38.53-18.74,59.93t-48.69,21.41q-33.18,0-62.06-28.9Z" transform="translate(-146.25 -176.32)"/><path class="cls-1" d="M3248.53,1385.58q-28.89,28.89-62.07,28.9-29.94,0-48.68-21.41T3119,1333.14V176.32h0a129.49,129.49,0,0,1,129.49,129.49v807.35l549-654.33q15-15,28.89-21.39a68.17,68.17,0,0,1,28.9-6.43q32.11,0,50.83,21.94t18.73,59.39v567.18A129.5,129.5,0,0,1,3795.37,1209h0V725.9Z" transform="translate(-146.25 -176.32)"/><path class="cls-1" d="M4119.13,1209V431h694.51V566.93H4254V1073.1h560.75V1209Zm234.36-338.16V756.34h431.26V870.85Z" transform="translate(-146.25 -176.32)"/><path class="cls-1" d="M5678.45,1209,5481.54,992.84H5190.46V873h324.25q73.84,0,111.3-40.13t37.45-116.11q0-76-39.06-112.9t-109.69-36.91H5090.94V1209H4956.1V431h558.61q66.34,0,118.79,19.8t88.82,56.72q36.36,36.91,55.65,89.36t19.26,117.72q0,97.38-42.28,163.19t-118.24,94.71L5871.07,1209Z" transform="translate(-146.25 -176.32)"/><rect class="cls-2" x="2815.2" width="99.54" height="1238.16"/></svg>